HIERARCHY
ROOT Hips
{
  OFFSET 40.9192 92.6879 18.85
  CHANNELS 6 Xposition Yposition Zposition Zrotation Xrotation Yrotation
  JOINT LeftUpLeg
  {
    OFFSET 8.64259 1.95398 -2.38835
    CHANNELS 3 Zrotation Xrotation Yrotation
    JOINT LeftLeg
    {
      OFFSET 43.7702 0 0
      CHANNELS 3 Zrotation Xrotation Yrotation
      JOINT LeftFoot
      {
        OFFSET 40.6238 0 0
        CHANNELS 3 Zrotation Xrotation Yrotation
        JOINT LeftToeBase
        {
          OFFSET 12.7242 0 0
          CHANNELS 3 Zrotation Xrotation Yrotation
          End Site
          {
            OFFSET 0 0 0
          }
        }
      }
    }
  }
  JOINT RightUpLeg
  {
    OFFSET -8.2249 1.95398 -2.59336
    CHANNELS 3 Zrotation Xrotation Yrotation
    JOINT RightLeg
    {
      OFFSET 43.5653 0 0
      CHANNELS 3 Zrotation Xrotation Yrotation
      JOINT RightFoot
      {
        OFFSET 40.6238 0 0
        CHANNELS 3 Zrotation Xrotation Yrotation
        JOINT RightToeBase
        {
          OFFSET 12.7242 0 0
          CHANNELS 3 Zrotation Xrotation Yrotation
          End Site
          {
            OFFSET 0 0 0
          }
        }
      }
    }
  }
  JOINT Spine
  {
    OFFSET 0.165834 0.87714 6.61349
    CHANNELS 3 Zrotation Xrotation Yrotation
    JOINT Spine1
    {
      OFFSET 7.38963 1.71661e-005 0
      CHANNELS 3 Zrotation Xrotation Yrotation
      JOINT Spine2
      {
        OFFSET 11.9445 1.14441e-005 0
        CHANNELS 3 Zrotation Xrotation Yrotation
        JOINT Spine3
        {
          OFFSET 14.7254 4.19617e-005 0
          CHANNELS 3 Zrotation Xrotation Yrotation
          JOINT Spine4
          {
            OFFSET 10.9679 0 0
            CHANNELS 3 Zrotation Xrotation Yrotation
            JOINT RightShoulder
            {
              OFFSET 2.46616 -1.6653 3.69651
              CHANNELS 3 Zrotation Xrotation Yrotation
              JOINT RightArm
              {
                OFFSET 13.0012 0 0
                CHANNELS 3 Zrotation Xrotation Yrotation
                JOINT RightForeArm
                {
                  OFFSET 28.7848 1.52588e-005 0
                  CHANNELS 3 Zrotation Xrotation Yrotation
                  JOINT RightHand
                  {
                    OFFSET 26.5688 1.52588e-005 0
                    CHANNELS 3 Zrotation Xrotation Yrotation
                    End Site
                    {
                      OFFSET 0 0 0
                    }
                  }
                }
              }
            }
            JOINT LeftShoulder
            {
              OFFSET 2.38034 -1.29275 -3.7523
              CHANNELS 3 Zrotation Xrotation Yrotation
              JOINT LeftArm
              {
                OFFSET 16.3182 6.10351e-005 0
                CHANNELS 3 Zrotation Xrotation Yrotation
                JOINT LeftForeArm
                {
                  OFFSET 27.0901 0 0
                  CHANNELS 3 Zrotation Xrotation Yrotation
                  JOINT LeftHand
                  {
                    OFFSET 24.5451 1.52588e-005 0
                    CHANNELS 3 Zrotation Xrotation Yrotation
                    End Site
                    {
                      OFFSET 0 0 0
                    }
                  }
                }
              }
            }
            JOINT Neck
            {
              OFFSET 5.0226 -0.0266342 0
              CHANNELS 3 Zrotation Xrotation Yrotation
              JOINT Head
              {
                OFFSET 6.69363 2.86102e-005 0
                CHANNELS 3 Zrotation Xrotation Yrotation
                End Site
                {
                  OFFSET 0 0 0
                }
              }
            }
          }
        }
      }
    }
  }
}
MOTION
Frames:	15
Frame Time:	0.0416667
38.1175 96.5166 23.7632 -159.219 -83.637 -158.957 -172.688 9.09159 90.8855 -20.8525 20.6649 -1.3683 62.1723 3.37277 4.82889 28.222 -0.211532 -2.14993 176.735 9.57932 85.7648 -45.6286 -2.91397 -5.31392 57.3731 -0.94815 -0.467408 39.5011 0.382341 -5.22474 0.488589 7.80187 -89.807 11.2691 1.06221 0.278932 -0.401404 1.07345 0.231908 -22.9391 0.929269 0.585306 -2.92649 0.929271 0.585305 92.6017 -48.2811 -97.1493 26.3739 -5.97475 4.17686 -24.5818 -22.0551 -64.1349 -8.51939 -0.881421 2.87065 -92.5473 -46.5857 74.0292 -26.5412 7.03645 8.02348 9.05436 7.07335 -46.7159 14.1653 1.18657 4.4008 2.39947 -0.4632 1.69694 0.478408 -0.733867 -1.05539 
39.2608 96.8233 25.2732 -150.131 -83.9526 -148.893 -172.68 8.35687 91.1111 -20.3022 19.328 -1.1228 63.5147 4.3598 3.81211 26.8301 -1.37822 -1.3105 175.661 12.1436 85.7422 -45.3185 1.54425 -3.88824 56.9519 -0.846498 -0.37952 37.6694 0.32336 -8.82776 0.394783 7.78936 -89.869 11.2948 0.846667 0.176576 -0.375898 0.853619 0.139131 -22.9128 0.754452 0.42288 -2.90015 0.754458 0.422878 92.8589 -48.2908 -96.7429 26.6845 -5.40997 4.08512 -21.8189 -21.9257 -60.9155 -7.1398 -0.829337 3.04902 -92.4986 -46.3177 74.0307 -25.0271 5.66761 6.84054 9.23928 5.28914 -50.9472 15.6247 1.13962 3.36593 2.05376 -6.38308 4.73331 -0.159614 -7.10331 -4.22519 
39.9499 97.1387 26.5401 -137.352 -83.523 -135.008 -172.194 7.58587 91.8078 -19.4797 18.1305 -1.16303 64.0712 4.6984 3.62462 26.8673 -1.35982 -1.22902 173.285 11.4884 85.6371 -36.1449 4.35543 -1.79655 59.2487 -1.35976 -0.721555 37.1152 0.335124 -9.55987 0.337034 7.78586 -89.9504 11.3022 0.693849 0.0298008 -0.368534 0.694493 -0.000771808 -22.9051 0.652809 0.236962 -2.89241 0.652818 0.236964 93.3887 -48.0333 -95.9538 26.7113 -5.36449 3.53355 -21.7879 -23.1551 -59.264 -7.42476 -0.859308 3.20883 -92.5261 -46.0688 73.9194 -24.8344 5.25886 6.59082 8.73761 4.44647 -52.4904 18.3362 1.43026 3.94734 1.89281 -10.8884 7.6556 -1.45321 -11.992 -8.05099 
39.9303 97.245 27.6989 -122.985 -82.4937 -120.19 -171.393 7.19917 92.498 -18.9384 16.9672 -1.66207 64.8801 5.0271 3.59157 26.8419 -1.38931 -1.15261 172.153 10.1916 85.6107 -25.4544 5.14452 -0.468376 56.2057 -0.284113 0.0256446 36.9946 0.355024 -7.49193 0.315476 7.75753 -89.9331 11.3588 0.659028 0.0672494 -0.312024 0.661357 0.0381723 -22.8484 0.608349 0.262214 -2.8357 0.608346 0.262212 93.6666 -47.4921 -95.6087 27.3195 -5.65286 3.08391 -21.061 -23.9588 -57.9993 -7.03221 -0.849448 3.29065 -92.919 -46.5247 73.4397 -24.5119 5.69916 7.63698 8.78491 4.63529 -52.131 17.2959 1.33746 3.85425 2.41619 -14.8037 9.3539 -3.76076 -15.9889 -11.2641 
39.412 97.3573 28.819 -115.44 -81.6495 -112.707 -171.292 6.32277 92.642 -17.8863 16.2606 -1.59848 65.0849 5.32572 4.05347 27.0315 -1.25698 -1.03171 171.38 8.95005 85.5359 -22.2865 5.87561 0.349374 55.8901 -0.0700731 0.161934 36.7064 0.3685 -5.60447 0.186246 7.71846 -89.8066 11.4361 0.460943 0.338631 -0.234786 0.4754 0.318014 -22.77 0.337856 0.46151 -2.75733 0.33786 0.461507 93.282 -47.9041 -96.1459 27.094 -6.49785 2.20629 -17.7025 -24.5513 -55.0532 -9.39176 -0.973191 3.66401 -92.6016 -46.6767 73.9705 -25.456 5.73394 8.88311 10.3333 6.8166 -49.4182 14.2762 1.11286 3.84071 2.48807 -19.2076 10.4781 -7.18195 -20.1164 -14.6549 
38.9758 97.5129 29.795 -111.273 -81.1863 -107.817 -170.863 6.01262 93.5849 -17.6837 15.7026 -1.48971 65.5061 5.52268 3.59141 27.3011 -1.04761 -1.02748 171.006 7.02942 86.0788 -19.2011 4.80795 1.00061 55.4205 0.16567 0.331686 37.4052 0.371658 -6.04474 0.125319 7.70017 -89.8452 11.4731 0.321716 0.275586 -0.197869 0.333542 0.261149 -22.733 0.224019 0.359533 -2.72031 0.224016 0.359531 93.243 -47.8159 -96.2236 26.7761 -6.7078 1.62733 -16.9874 -26.3888 -52.9914 -8.17861 -0.953163 4.01289 -92.9702 -46.6174 73.3871 -27.403 6.74338 9.79361 7.38023 6.36091 -43.1921 13.3637 0.9003 2.79061 1.78022 -23.3105 10.5259 -9.24877 -23.7929 -17.703 
38.4661 97.5205 30.5197 -106.092 -80.6154 -102.709 -170.535 5.7251 93.8828 -16.9208 15.4341 -1.68936 65.5264 5.58555 3.78046 27.9775 -0.390022 -2.21975 171.281 5.9569 86.5147 -17.075 5.413 0.950026 56.3767 -0.0971099 0.138491 36.5084 0.373277 -5.43743 0.15566 7.65404 -89.8322 11.5655 0.388245 0.294122 -0.105452 0.40081 0.276741 -22.6406 0.281903 0.397211 -2.62799 0.281898 0.397205 93.4135 -48.3936 -95.8523 25.9714 -6.39177 1.32824 -15.9106 -26.4191 -51.3683 -7.59366 -0.937087 4.23698 -93.2697 -46.7412 72.9618 -28.6548 8.33561 10.4272 6.38731 7.83069 -38.6072 12.047 0.790673 2.58789 1.85947 -24.2851 9.52181 -8.80932 -24.6915 -17.7135 
38.0369 97.5135 30.967 -104.186 -80.7509 -101.233 -170.389 5.40837 93.8112 -16.2053 15.999 -1.94023 65.2423 5.47688 4.18564 28.5994 0.126243 -2.65394 171.268 5.41547 86.4325 -16.1308 5.91001 0.887946 57.0703 -0.27962 0.00718973 36.2342 0.372836 -5.23675 0.163507 7.60254 -89.8254 11.6682 0.407128 0.305616 -0.00269353 0.420187 0.287399 -22.5379 0.296464 0.41385 -2.52522 0.296459 0.413848 93.4902 -48.4122 -95.7272 25.8863 -5.91079 1.55451 -14.7459 -26.4903 -49.5236 -7.75438 -0.984883 4.77948 -93.0194 -46.8617 73.3801 -29.392 8.46421 10.8678 6.3883 9.08469 -36.2074 10.945 0.8294 3.50434 3.09979 -18.6975 6.92478 -6.00688 -19.3225 -13.5004 
37.705 97.4983 31.2385 -105.132 -81.4721 -102.326 -170.524 5.31365 93.8364 -16.2702 16.3961 -1.79437 65.5146 5.55494 3.81067 28.3978 -0.0631404 -2.29075 171.207 5.10476 86.4321 -16.2946 6.69045 0.958205 57.9676 -0.614011 -0.228122 35.5068 0.371233 -4.70098 0.235276 7.56349 -89.8985 11.7466 0.515618 0.147897 0.0757829 0.521625 0.125054 -22.46 0.447328 0.296029 -2.44731 0.447326 0.296024 93.6785 -48.2628 -95.4568 25.5515 -5.87244 2.38666 -13.2748 -25.6532 -48.3248 -7.42447 -0.968296 4.9633 -92.8432 -46.5906 73.5746 -29.6849 7.99706 11.0949 6.3715 8.97304 -35.7283 11.0444 0.839129 3.52149 4.7519 -7.97997 0.683044 -2.64478 -8.04915 -3.50514 
37.4038 97.4647 31.4284 -108.702 -82.5973 -106.435 -170.566 4.86523 93.6023 -15.7378 17.7982 -1.91121 65.0922 5.4917 4.40785 28.5764 0.127362 -2.83704 170.865 4.99638 86.0102 -17.0914 7.3542 1.03944 58.8208 -0.79425 -0.350698 35.6886 0.368295 -4.94313 0.33519 7.56644 -89.9609 11.7412 0.685051 0.00580079 0.0704091 0.684654 -0.0243641 -22.4661 0.651637 0.211421 -2.45345 0.651638 0.211424 93.952 -48.0183 -95.0655 25.3914 -5.37345 3.13578 -12.3325 -25.3033 -47.0965 -6.44318 -1.00331 6.48333 -93.0808 -46.848 73.2821 -28.6834 7.71243 10.3427 6.10294 8.17333 -36.1632 11.3282 0.813254 3.14187 5.70644 3.88314 -5.63619 -2.47564 4.86202 5.96032 
37.1319 97.4361 31.5822 -112.016 -84.0749 -110.124 -170.669 4.736 93.4278 -15.0023 19.4855 -1.99287 64.5655 5.37883 5.67113 28.7974 0.398152 -3.92986 170.664 4.60608 85.8249 -16.9326 8.64216 1.1653 59.4467 -0.957045 -0.457852 35.451 0.365017 -4.97275 0.362668 7.53547 -89.9418 11.803 0.74864 0.0365381 0.132251 0.749528 0.00354416 -22.4045 0.703044 0.259854 -2.39182 0.703047 0.259857 93.9409 -48.2524 -95.044 25.4265 -4.95934 3.60583 -13.6849 -26.9218 -47.0917 -5.89176 -0.988241 6.57595 -92.6454 -46.3463 73.8118 -28.1071 6.86115 10.0475 6.05054 6.67199 -38.0909 11.4843 0.808241 3.02388 6.06751 11.6149 -9.63109 -4.38306 13.0718 10.9268 
36.8018 97.3419 31.6266 -116.127 -84.8093 -114.674 -170.803 4.58951 93.2846 -15.057 19.7612 -1.90272 65.2399 5.92857 4.79999 28.2964 -0.206246 -1.66984 170.453 4.14718 85.6283 -16.7266 9.52327 1.24883 60.6689 -1.23354 -0.635499 34.9009 0.360227 -4.75142 0.415183 7.53428 -89.8906 11.8051 0.877132 0.125017 0.134492 0.88179 0.0862802 -22.4027 0.799001 0.382868 -2.39002 0.799009 0.382874 93.7409 -47.7847 -95.4398 25.9891 -4.79528 3.64768 -15.9982 -28.5424 -47.2903 -5.80998 -0.919384 5.09501 -92.5496 -46.2803 73.9416 -27.9035 6.18603 9.97399 7.01471 6.76577 -40.3075 12.5337 0.977027 3.76406 6.09612 13.4731 -9.79068 -4.27553 14.9317 10.6695 
36.487 97.0652 31.593 -116.707 -84.2233 -115.763 -171.104 4.41571 92.8407 -16.0514 18.6877 -1.61243 66.5251 7.28192 5.01132 30.7463 1.51557 0.501742 170.623 4.12879 85.5142 -17.3744 9.4534 0.873797 62.6022 -1.79573 -0.978136 34.5123 0.354491 -4.7684 0.520861 7.56417 -89.817 11.7447 1.12191 0.246571 0.074226 1.13167 0.196945 -22.464 0.99593 0.572381 -2.45131 0.995931 0.572381 93.5951 -47.2765 -95.7605 26.2829 -4.386 3.07411 -14.0624 -27.0978 -46.0839 -5.47943 -0.841662 4.46279 -92.1618 -46.3378 74.5567 -27.9198 6.83652 9.94583 7.95527 7.81519 -41.509 13.12 0.926358 3.09526 6.16512 9.72755 -7.00781 -3.23979 10.8349 6.61843 
36.1043 96.7544 31.8769 -112.323 -83.1251 -112.191 -171.022 4.46623 92.2645 -17.4873 17.115 -1.83054 67.9766 8.82725 6.45797 31.9561 2.49009 0.273443 170.876 4.97775 85.2278 -19.177 8.45614 0.200609 64.9705 -2.76919 -1.52676 33.9118 0.360282 -5.38435 0.581594 7.59639 -89.6704 11.6783 1.31145 0.519966 0.00789859 1.33306 0.461724 -22.5304 1.09455 0.890097 -2.51775 1.09455 0.890091 93.1401 -46.726 -96.5885 26.8155 -3.5831 3.54412 -14.9618 -26.3967 -47.7302 -6.54993 -0.925909 4.94015 -91.8703 -46.6033 75.0782 -28.0175 6.90207 10.8298 8.99401 7.96547 -44.121 13.24 0.996081 3.54419 4.56891 0.59778 -1.913 -1.17505 0.854578 -0.803029 
35.5282 96.4702 32.3008 -106.74 -81.5662 -106.63 -170.54 4.51114 92.6429 -18.5015 14.5797 -1.98927 69.6787 10.0039 6.54801 32.1188 2.52987 1.9143 171.492 8.32874 85.6685 -25.1176 6.97876 -0.122572 64.8072 -3.10641 -1.72632 36.765 0.364471 -6.13989 0.511564 7.68652 -89.6037 11.4972 1.20305 0.666452 -0.173362 1.23122 0.612848 -22.7101 0.947134 0.997209 -2.6975 0.947148 0.997215 94.1696 -47.0999 -94.8717 26.4902 -3.67729 3.82073 -15.0787 -24.4876 -49.299 -7.39036 -0.920993 4.38486 -92.212 -46.4463 74.5083 -28.0838 7.34474 11.3033 8.54582 7.34269 -45.0565 14.241 1.05891 3.48843 2.02739 -7.79769 0.464226 -0.898692 -7.98147 -6.11901 
